<?xml version="1.0" encoding="utf-8"?>
<!-- Generator: Adobe Illustrator 27.2.0, SVG Export Plug-In . SVG Version: 6.00 Build 0)  -->
<svg version="1.1" id="Layer_1" xmlns="http://www.w3.org/2000/svg" xmlns:xlink="http://www.w3.org/1999/xlink" x="0px" y="0px"
	 viewBox="0 0 16 16" style="enable-background:new 0 0 16 16;" xml:space="preserve">
<style type="text/css">
	.st0{fill:#BABABA;}
</style>
<path class="st0" d="M5.7,2.4C4.8,2.6,4,2.8,3.2,3.1C3,3.2,2.9,3.3,2.9,3.5c-0.5,3.7,0.6,6.3,2,8.1c0.6,0.8,1.2,1.4,2,2
	c0.3,0.2,0.6,0.4,0.8,0.5c0.1,0.1,0.2,0.1,0.3,0.1h0.1h0.1c0.1,0,0.2-0.1,0.3-0.1C8.7,14,9,13.8,9.3,13.6c0.8-0.6,1.4-1.2,2-2
	c1.3-1.8,2.5-4.4,2-8.1c0-0.2-0.1-0.3-0.3-0.3c-0.6-0.2-1.5-0.5-2.5-0.8C9.4,2.1,8.5,1.9,8,1.9S6.6,2.1,5.7,2.4L5.7,2.4z M5.4,1.4
	C6.4,1.2,7.4,1,8,1s1.6,0.2,2.6,0.5s2,0.6,2.5,0.8c0.5,0.1,0.9,0.5,0.9,1c0.5,3.9-0.7,6.9-2.2,8.8c-0.6,0.8-1.4,1.6-2.2,2.2
	c-0.3,0.2-0.6,0.4-0.9,0.6C8.5,15,8.2,15,8,15s-0.5-0.1-0.7-0.2c-0.3-0.2-0.6-0.3-0.9-0.6c-0.8-0.6-1.6-1.3-2.2-2.2
	C2.7,10.2,1.4,7.3,2,3.3c0-0.5,0.4-0.9,0.9-1.1C3.7,1.9,4.6,1.7,5.4,1.4z"/>
<path class="st0" d="M9.3,6.7c0,0.6-0.4,1.1-0.9,1.2l0.3,1.8c0,0.2-0.1,0.5-0.3,0.5H8.3H7.7c-0.2,0-0.4-0.2-0.4-0.4V9.7l0.3-1.8
	c-0.7-0.2-1-1-0.8-1.7s1-1,1.7-0.8C9,5.6,9.3,6.1,9.3,6.7z"/>
</svg>
